HIERARCHY
ROOT Hips
{
	OFFSET 0.000000 0.000000 0.000000 
	CHANNELS 6 Xposition Yposition Zposition Zrotation Yrotation Xrotation
	JOINT LeftUpLeg
	{
		OFFSET 1.363060 -1.794630 0.839290 
		CHANNELS 3 Zrotation Yrotation Xrotation
		JOINT LeftLeg
		{
			OFFSET 2.448110 -6.726130 0.000000 
			CHANNELS 3 Zrotation Yrotation Xrotation
			JOINT LeftFoot
			{
				OFFSET 2.562200 -7.039590 0.000000 
				CHANNELS 3 Zrotation Yrotation Xrotation
				JOINT LeftToeBase
				{
					OFFSET 0.157640 -0.433110 2.322550 
					CHANNELS 3 Zrotation Yrotation Xrotation
					End Site
					{
						OFFSET 0.000000 0.000000 0.000000 
					}
				}
			}
		}
	}
	JOINT RightUpLeg
	{
		OFFSET -1.305520 -1.794630 0.839290 
		CHANNELS 3 Zrotation Yrotation Xrotation
		JOINT RightLeg
		{
			OFFSET -2.542530 -6.985550 0.000000 
			CHANNELS 3 Zrotation Yrotation Xrotation
			JOINT RightFoot
			{
				OFFSET -2.568260 -7.056230 0.000000 
				CHANNELS 3 Zrotation Yrotation Xrotation
				JOINT RightToeBase
				{
					OFFSET -0.164730 -0.452590 2.363150 
					CHANNELS 3 Zrotation Yrotation Xrotation
					End Site
					{
						OFFSET 0.000000 0.000000 0.000000 
					}
				}
			}
		}
	}
	JOINT Spine
	{
		OFFSET 0.028270 2.035590 -0.193380 
		CHANNELS 3 Zrotation Yrotation Xrotation
		JOINT Spine1
		{
			OFFSET 0.056720 2.048850 -0.042750 
			CHANNELS 3 Zrotation Yrotation Xrotation
			JOINT Neck1
			{
				OFFSET -0.054170 1.746240 0.172020 
				CHANNELS 3 Zrotation Yrotation Xrotation
				JOINT Head
				{
					OFFSET 0.104070 1.761360 -0.123970 
					CHANNELS 3 Zrotation Yrotation Xrotation
					End Site
					{
						OFFSET 0.000000 0.000000 0.000000 
					}
				}
			}
			JOINT LeftArm
			{
				OFFSET 3.362410 1.200890 -0.311210 
				CHANNELS 3 Zrotation Yrotation Xrotation
				JOINT LeftForeArm
				{
					OFFSET 4.983000 -0.000000 -0.000000 
					CHANNELS 3 Zrotation Yrotation Xrotation
					JOINT LeftHand
					{
						OFFSET 3.483560 -0.000000 -0.000000 
						CHANNELS 3 Zrotation Yrotation Xrotation
						JOINT LeftHandIndex1
						{
							OFFSET 0.715260 -0.000000 -0.000000 
							CHANNELS 3 Zrotation Yrotation Xrotation
							End Site
							{
								OFFSET 0.000000 0.000000 0.000000 
							}
						}
					}
				}
			}
			JOINT RightArm
			{
				OFFSET -3.136600 1.374050 -0.404650 
				CHANNELS 3 Zrotation Yrotation Xrotation
				JOINT RightForeArm
				{
					OFFSET -5.241900 -0.000000 -0.000000 
					CHANNELS 3 Zrotation Yrotation Xrotation
					JOINT RightHand
					{
						OFFSET -3.444170 -0.000000 -0.000000 
						CHANNELS 3 Zrotation Yrotation Xrotation
						JOINT RightHandIndex1
						{
							OFFSET -0.622530 -0.000000 -0.000000 
							CHANNELS 3 Zrotation Yrotation Xrotation
							End Site
							{
								OFFSET 0.000000 0.000000 0.000000 
							}
						}
					}
				}
			}
		}
	}
}
MOTION
Frames: 7
Frame Time: 0.041667
9.776294 17.281247 2.817773 1.902441 -2.837803 -4.444061 -11.963612 3.337312 -16.630190 4.258586 14.680422 43.152282 -0.366045 4.736910 -11.008265 0.563300 -4.807100 -13.359300 14.679315 1.664881 -13.664047 -5.157981 -15.292398 45.941724 2.340985 -12.881655 -13.941543 -0.687400 5.300800 -14.768500 0.815896 0.259377 -3.772304 2.236617 0.027843 4.376027 5.229680 -1.997493 9.798023 -0.160200 -0.769700 5.368100 -11.343812 -42.808528 5.430214 15.129207 -19.182994 -3.774425 -2.570227 0.216001 -9.151550 -7.125000 0.000000 0.000000 11.486827 49.298392 -15.036072 -8.130740 13.813864 -2.064023 2.842013 -0.644496 27.614701 7.125000 0.000000 0.000000 
9.781476 17.286075 2.815770 2.031674 -2.849640 -4.444582 -12.127829 3.308429 -16.630839 4.254249 14.685719 43.161109 -0.409745 4.875479 -11.055506 0.580200 -4.877600 -13.559700 14.521888 1.703149 -13.670361 -5.162182 -15.289844 45.940581 2.352422 -12.902918 -13.886438 -0.690000 5.310500 -14.796300 0.811116 0.248413 -3.772028 2.291733 0.028509 4.268607 5.288777 -2.039671 9.669302 -0.101400 -0.793000 5.194100 -11.349492 -42.763861 5.431268 15.122831 -19.188500 -3.775604 -2.571477 0.220053 -9.295330 -7.125000 0.000000 0.000000 11.563424 49.348929 -15.054208 -8.133199 13.811511 -2.065171 2.840009 -0.651805 27.651403 7.125000 0.000000 0.000000 
9.785480 17.284897 2.812826 1.967907 -2.874938 -4.417616 -12.080514 3.259652 -16.659717 4.259891 14.690556 43.177127 -0.446370 4.984763 -11.055029 0.579500 -4.874700 -13.551600 14.595241 1.749876 -13.672716 -5.159903 -15.291874 45.938307 2.381697 -13.018299 -13.909138 -0.724600 5.439100 -15.165200 0.814502 0.248343 -3.763292 2.310788 0.033660 4.243616 5.387801 -2.100398 9.550267 0.002900 -0.823500 5.038600 -11.282668 -42.775230 5.330063 15.116677 -19.208054 -3.775640 -2.571392 0.209640 -9.402926 -7.125000 0.000000 0.000000 11.640948 49.338916 -14.529240 -8.251834 13.957507 -2.115498 2.890808 -0.620763 26.845928 7.125000 0.000000 0.000000 
9.788424 17.282307 2.808116 1.780931 -2.925867 -4.377881 -11.892297 3.224434 -16.695713 4.271801 14.694089 43.196211 -0.439400 4.962787 -11.041510 0.569500 -4.833200 -13.433400 14.822418 1.863742 -13.672005 -5.150558 -15.296565 45.929762 2.394283 -13.078987 -13.929403 -0.718300 5.415900 -15.098700 0.826826 0.251136 -3.750503 2.300094 0.033551 4.318426 5.393492 -2.194606 9.540819 0.009700 -0.869500 5.028300 -11.159948 -42.787616 5.088618 15.118668 -19.243233 -3.780686 -2.567875 0.201985 -9.392217 -7.125000 0.000000 0.000000 11.619993 49.362672 -14.390357 -8.355142 14.106769 -2.166665 2.949272 -0.552319 26.383688 7.125000 0.000000 0.000000 
9.793723 17.284544 2.803994 1.758061 -2.952262 -4.336140 -11.889507 3.150217 -16.701418 4.274259 14.700952 43.213183 -0.432344 4.953843 -11.099666 0.556100 -4.776800 -13.272900 14.844986 1.965892 -13.689048 -5.144908 -15.297061 45.922380 2.375751 -13.025971 -13.982555 -0.679300 5.270000 -14.680300 0.835223 0.234538 -3.734960 2.334683 0.015770 4.441721 5.354208 -2.230162 9.557604 -0.035500 -0.887600 5.037500 -11.043609 -42.818432 4.757888 15.075708 -19.241342 -3.770378 -2.561887 0.202759 -9.340674 -7.125000 0.000000 0.000000 11.523883 49.442249 -14.497263 -8.431329 14.241586 -2.209108 3.001009 -0.460073 26.277290 7.125000 0.000000 0.000000 
9.801849 17.289255 2.799519 1.825555 -2.974473 -4.279799 -11.999580 3.065102 -16.714153 4.262313 14.699802 43.194093 -0.468487 5.072245 -11.155808 0.553000 -4.763600 -13.235400 14.736036 2.041027 -13.733778 -5.140818 -15.295671 45.917479 2.344156 -12.948448 -14.149605 -0.668800 5.230000 -14.565800 0.836963 0.202053 -3.723247 2.372541 -0.002551 4.511925 5.387086 -2.146939 9.509442 0.004000 -0.848100 4.976900 -10.914138 -42.800376 4.530855 15.035959 -19.248125 -3.765005 -2.574612 0.188309 -9.433481 -7.125000 0.000000 0.000000 11.493275 49.613485 -14.772796 -8.398365 14.253799 -2.211422 3.008470 -0.450772 26.471396 7.125000 0.000000 0.000000 
9.807855 17.293848 2.794573 1.891161 -3.012963 -4.240872 -12.098634 3.010259 -16.731168 4.246326 14.691577 43.154331 -0.510476 5.198465 -11.164852 0.553200 -4.764700 -13.238800 14.636148 2.151751 -13.783980 -5.139961 -15.296455 45.914220 2.338932 -12.927953 -14.160547 -0.666700 5.221700 -14.542000 0.830299 0.203276 -3.723572 2.359278 0.003133 4.484068 5.430708 -2.108871 9.467713 0.048200 -0.828700 4.943300 -10.816124 -42.767843 4.583475 15.055504 -19.290715 -3.781065 -2.603487 0.164394 -9.672162 -7.125000 0.000000 0.000000 11.563586 49.662043 -14.819638 -8.401654 14.258812 -2.218881 3.012859 -0.470444 26.593086 7.125000 0.000000 0.000000 
